<svg width="1200" height="320" viewBox="0 0 1200 320" fill="none" xmlns="http://www.w3.org/2000/svg">
  <g transform="translate(40,30)">
    <path d="M20 165L175 115L330 165L175 215L20 165Z" fill="#11172A" stroke="#F59C2A" stroke-width="10"/>
    <path d="M20 165V245L175 295V215L20 165Z" fill="#0E1424" stroke="#F59C2A" stroke-width="10"/>
    <path d="M330 165V245L175 295V215L330 165Z" fill="#0A1020" stroke="#F59C2A" stroke-width="10"/>
    <path d="M20 165L95 60L255 40L330 100" stroke="#F59C2A" stroke-width="10" stroke-linecap="round"/>
    <path d="M95 60L175 80L330 100" stroke="#72D2F4" stroke-width="9" stroke-linecap="round"/>
    <path d="M115 145L175 115L235 145L175 175L115 145Z" fill="#63CCE9"/>
    <path d="M115 145V205L175 235V175L115 145Z" fill="#1A87BF"/>
    <path d="M235 145V205L175 235V175L235 145Z" fill="#0F5D9C"/>
    <path d="M175 175V235" stroke="#B8EEFF" stroke-width="4"/>
    <g fill="#FFB247">
      <path d="M266 95L274 111L290 119L274 127L266 143L258 127L242 119L258 111L266 95Z"/>
      <circle cx="293" cy="145" r="6"/>
      <circle cx="241" cy="144" r="4"/>
      <circle cx="230" cy="118" r="4"/>
    </g>
  </g>
  <text x="450" y="220" font-family="Inter, Segoe UI, Arial, sans-serif" font-size="140" font-weight="700" fill="#72D2F4">Art</text>
  <text x="640" y="220" font-family="Inter, Segoe UI, Arial, sans-serif" font-size="140" font-weight="700" fill="#F59C2A">Cases</text>
</svg>
